<svg xmlns="http://www.w3.org/2000/svg" viewBox="0 0 40 40"><path fill="#fff" d="M33.508 2.32c-1.662-1.256-9.522-3.909-21.868 8.876-13.01 13.475-9.888 21.83-8.337 23.234l8.478-9.005c-1.257-1.183-.22-2.788 2.15-5.885 1.58-2.046 3.693-4.41 6.104-6.482 1.696-1.446 3.476-2.744 4.793-1.504zM7.436 38.355a1.368 1.368 0 0 0 1.947-.065h.013L16 31.261a1.366 1.366 0 0 0-.066-1.932l-2.552-2.403-8.5 9.027s2.54 2.403 2.545 2.397l.007.006zm21.549-22.887c.585.55 1.445.468 1.947-.065l.007.006 6.799-7.235a1.366 1.366 0 0 0-.065-1.932L35.12 3.838l-8.687 9.227 2.54 2.403z"/></svg>