<svg xmlns="http://www.w3.org/2000/svg" viewBox="0 0 40 40"><path fill="#fff" d="M20.512 1.964C10.392 1.964 2.19 10.17 2.19 20.29s8.203 18.324 18.323 18.324c10.121 0 18.326-8.204 18.325-18.324 0-10.12-8.204-18.325-18.325-18.325zm.756 6.318c2.099 0 3.963.407 5.595 1.223 1.632.816 2.876 1.977 3.734 3.484.866 1.499 1.299 3.14 1.299 4.92 0 2.124-.654 4.043-1.96 5.758-1.641 2.165-3.743 3.247-6.307 3.247-.691 0-1.212-.12-1.561-.362-.35-.241-.583-.596-.7-1.062-.982.95-2.114 1.424-3.396 1.424-1.382 0-2.532-.475-3.447-1.424-.908-.957-1.361-2.227-1.361-3.809 0-1.956.55-3.742 1.648-5.357 1.332-1.965 3.039-2.947 5.12-2.947 1.482 0 2.577.566 3.285 1.698l.311-1.386h3.297l-1.885 8.954c-.117.566-.175.932-.175 1.099 0 .208.046.366.137.475.1.1.217.15.35.15.4 0 .916-.242 1.548-.725.85-.633 1.537-1.482 2.061-2.548a7.408 7.408 0 0 0 .787-3.309c0-2.048-.74-3.759-2.223-5.132-1.482-1.382-3.551-2.074-6.207-2.074-2.256 0-4.17.463-5.744 1.387-1.565.916-2.747 2.21-3.547 3.883a11.999 11.999 0 0 0-1.186 5.208c0 1.757.441 3.355 1.324 4.795.89 1.44 2.135 2.49 3.734 3.148 1.606.666 3.442.998 5.507.998 1.99 0 3.7-.278 5.133-.836 1.432-.55 2.585-1.378 3.459-2.485h2.66c-.833 1.69-2.11 3.014-3.834 3.971-1.974 1.1-4.38 1.649-7.218 1.649-2.748 0-5.12-.467-7.119-1.4-1.998-.923-3.484-2.289-4.458-4.095-.974-1.815-1.461-3.789-1.461-5.92 0-2.34.553-4.516 1.66-6.531 1.108-2.023 2.623-3.539 4.547-4.546 1.923-1.016 4.12-1.523 6.593-1.523zm-1.049 7.342c-.716 0-1.378.28-1.985.837-.608.55-1.066 1.337-1.374 2.36-.308 1.025-.462 1.932-.462 2.723 0 1.057.212 1.836.637 2.335.433.5.966.75 1.598.75.475 0 .92-.117 1.337-.35.316-.167.628-.429.936-.787.441-.508.82-1.249 1.136-2.223.325-.974.488-1.881.488-2.722 0-.941-.22-1.661-.662-2.16a2.072 2.072 0 0 0-1.649-.763z" paint-order="markers fill stroke"/></svg>