<svg xmlns="http://www.w3.org/2000/svg" viewBox="0 0 268.42 268.42"><circle cx="134.21" cy="134.209" r="134.02" fill="#6e326e" stroke="#8e8f8f" stroke-linecap="round" stroke-width=".38"/><path fill="#fff" d="M142.846 10.361c-5.035-.071-10.324 5.245-13.262 7.756-12.874 9.375-29.64 18.476-43.364 23.92-11.67 3.69-11.672-2.083-17.435-1.96-6.345 1.018-8.609 8.688-14.121 11.193-7.458 2.597-11.661 3.533-16.292 9.618-4.208 8.83-13.796 13.86-18.34 20.384-2.574 3.81-4.127 8.44-5.414 13.208-1.159 5.467-1.498 7.795-1.735 12.197 13.09-31.26 46.236-34.3 69.378-48.086-6.484 6.674-12.934 14.338-17.008 21.9-8.888 16.169-14.213 30.866-8.668 36.887 11.65 12.651 52.228 5.338 74.768 21.66 30.778 20.34 38.203 45.596 67.737 65.604 31.574 20.27 58.329-9.688 46.287-41.78 5.56 35.682-23.465 44.846-44.55 18.86-10.363-12.445-15.414-27.413-22.025-40.643-17.302-42.333-67.156-62.3-105.343-64.284 18.008-28.771 49.027-40.853 72.663-51.135 7.64-4.884 2.683-14.877-3.276-15.3z" color="#000" font-family="sans-serif" font-weight="400" overflow="visible" style="line-height:normal;font-variant-ligatures:normal;font-variant-position:normal;font-variant-caps:normal;font-variant-numeric:normal;font-variant-alternates:normal;font-feature-settings:normal;text-indent:0;text-align:start;text-decoration-line:none;text-decoration-style:solid;text-decoration-color:#000;text-transform:none;text-orientation:mixed;white-space:normal;shape-padding:0;isolation:auto;mix-blend-mode:normal;solid-color:#000;solid-opacity:1"/></svg>