<svg xmlns="http://www.w3.org/2000/svg" viewBox="0 0 40 40"><path fill="#fff" d="M3.95 5.494C2.056 5.494.534 7.22.534 9.364v21.02c0 2.144 1.522 3.87 3.414 3.87h32.245c1.892 0 3.416-1.726 3.416-3.87V9.365c0-2.144-1.524-3.87-3.416-3.87zm30.598 2.589a1.323 1.323 0 0 1 .904 2.295L22.66 22.548c-1.572 1.584-4.164 1.595-5.758 0l-.004-.005-.006-.004L4.673 10.465a1.324 1.324 0 1 1 1.861-1.882l12.23 12.087.006.004c.455.459 1.581.442 2.01.01l.013-.014L33.628 8.46a1.323 1.323 0 0 1 .92-.377zm-5.943 12.603a1.323 1.323 0 0 1 .945.412l7.908 8.098a1.323 1.323 0 1 1-1.893 1.848l-7.908-8.096a1.323 1.323 0 0 1 .948-2.262zm-16.602.057a1.323 1.323 0 0 1 .986 2.26L5.175 30.99a1.323 1.323 0 1 1-1.89-1.85l7.812-7.988a1.323 1.323 0 0 1 .906-.41z" paint-order="markers fill stroke"/></svg>